<svg version="1" xmlns="http://www.w3.org/2000/svg" width="25.988" height="29.922" viewBox="0 0 25.988 29.922"><path fill="#283645" d="M0 0h25.988v29.922l-12.994-4.81L0 29.92V0zm20.154 17.895c-.24 0-.51-.006-.8-.018-.294-.014-.51-.05-.646-.116-.225-.102-.39-.26-.5-.468-.107-.21-.162-.492-.162-.854 0-.394.018-1.21.055-2.457.036-1.243.055-2.318.055-3.225 0-.858-.146-1.556-.44-2.088-.293-.535-.687-.942-1.185-1.223-.522-.29-1.108-.48-1.758-.572-.65-.093-1.365-.14-2.143-.14-.563 0-1.173.068-1.83.2-.66.132-1.24.318-1.747.56-.513.233-.95.528-1.306.885-.357.357-.536.76-.536 1.21 0 .52.174.945.52 1.27.346.323.857.486 1.533.486.476 0 .827-.043 1.057-.132.23-.088.437-.212.622-.373.138-.12.242-.283.314-.487.072-.205.11-.375.11-.51 0-.307-.058-.623-.17-.953-.113-.33-.18-.573-.206-.734.145-.104.335-.207.572-.308.237-.1.533-.15.886-.15.393 0 .71.088.952.264.24.176.417.392.53.65.104.225.172.5.205.83.032.328.048.594.048.795v1.155c-.467.224-1.207.48-2.22.767-1.013.285-1.88.56-2.604.826-.38.143-.727.3-1.044.47-.317.17-.597.38-.838.64-.265.28-.47.605-.615.97-.145.365-.217.81-.217 1.332 0 .91.33 1.637.99 2.19.657.55 1.454.824 2.387.824.627 0 1.115-.045 1.465-.133.35-.09.714-.223 1.09-.396.29-.137.562-.302.815-.493.253-.193.517-.426.79-.7h.073c.168.547.484.966.95 1.26.464.293 1.19.438 2.175.438.537 0 1.046-.064 1.526-.192s.896-.27 1.25-.42v-.878zm-6.02-1.302c-.218.265-.47.487-.755.668-.287.184-.65.272-1.095.272-.42 0-.77-.14-1.057-.42-.286-.282-.43-.738-.43-1.364 0-.475.084-.887.254-1.238.17-.35.403-.638.7-.862.283-.217.645-.424 1.088-.622.443-.197.89-.372 1.342-.525l-.05 4.093z"/></svg>