<svg version="1" xmlns="http://www.w3.org/2000/svg" width="26.096" height="33.803" viewBox="0 0 26.096 33.803"><path fill="#bec2c7" d="M13.047 0L0 1.456V25.93l13.047 7.836v.037l13.05-7.872V1.558L13.046 0zm10.99 24.745l-10.99 6.622v-7.385L6.68 21.124v-.02l6.372-2.817v-.02.01l6.367 2.815v-.006l.01.006v-1.234l-6.367-2.813-.003.003-.007-.003v.01-.002L6.678 19.87v-1.235l5.847-2.584-1.385-.62L6.68 17.4v-1.234l3.076-1.36-1.385-.622-1.69.748V13.7l.305-.135-3.73-1.674 9.793-4.247v-5.56l10.99 1.322v21.34z"/><path d="M19.428 17.39l-4.47-1.976-1.388.62 5.858 2.59M19.428 14.92l-1.694-.748-1.388.62 3.082 1.363"/></svg>